name C:\Users\tom_v\MusculoskeletalSpecialization\ResultsSprinting\Case_7\motion.mot
datacolumns 32
datarows 11
range 0.42629972 0.48313968
endheader 
time	pelvis_tilt	pelvis_list	pelvis_rotation	pelvis_tx	pelvis_ty	pelvis_tz	hip_flexion_r	hip_adduction_r	hip_rotation_r	knee_angle_r	ankle_angle_r	subtalar_angle_r	mtp_angle_r	hip_flexion_l	hip_adduction_l	hip_rotation_l	knee_angle_l	ankle_angle_l	subtalar_angle_l	mtp_angle_l	lumbar_extension	lumbar_bending	lumbar_rotation	arm_flex_r	arm_add_r	arm_rot_r	elbow_flex_r	arm_flex_l	arm_add_l	arm_rot_l	elbow_flex_l	
          0.42629972	        -11.28496203	         -2.34954900	         -0.53064364	          1.40705238	          0.88689723	         -0.00562161	         40.30402786	          3.27167928	         -3.85791284	        -75.45122023	         14.40372900	          2.77173745	          2.62478359	         12.33412725	          3.25569665	          7.24350176	        -41.26552501	         12.92253406	          0.31747437	         46.00421026	         -0.95068546	          2.40274083	         -2.27351364	         -8.09944872	         -8.09561594	          2.18780134	         71.32074629	         16.25090734	          0.24176095	          8.45120378	          0.60087145	
          0.43198372	        -11.32250415	         -2.57696753	         -0.50803915	          1.42590621	          0.88890421	         -0.00543038	         41.54394488	          3.57289628	         -3.92385553	        -74.51834446	         14.32568138	          2.29625315	          2.43558934	         10.78203664	          2.70897617	          7.02673448	        -40.27110224	         11.49414365	          1.13933158	         47.41808868	         -0.96698474	          2.76630267	         -2.49157817	         -8.64414210	         -8.14213498	          1.86025071	         72.98432277	         16.32084676	          0.29115242	          8.15458988	          0.29981165	
          0.43766771	        -11.35703231	         -2.78530992	         -0.48965078	          1.44484422	          0.89079875	         -0.00522574	         42.71620655	          3.85398610	         -3.95341224	        -73.45390150	         14.11604901	          1.84395871	          2.25997999	          9.26537463	          2.18507161	          6.81277521	        -39.34397897	         10.07953800	          2.01774618	         48.46300806	         -0.97516974	          3.10992506	         -2.70166093	         -9.14002957	         -8.17746656	          1.56667876	         74.48611219	         16.33393982	          0.31949880	          7.92188101	          0.11987979	
          0.44335171	        -11.38834770	         -2.97371246	         -0.47489375	          1.46385309	          0.89256710	         -0.00501057	         43.81827896	          4.11539871	         -3.94410599	        -72.26044742	         13.78328139	          1.41152416	          2.09583601	          7.80339075	          1.68858422	          6.60373048	        -38.51507862	          8.65717109	          2.93473285	         49.16570089	         -0.97676944	          3.43214137	         -2.90257450	         -9.58570038	         -8.20282751	          1.30591528	         75.82498780	         16.30329715	          0.33185834	          7.76275866	          0.02931418	
          0.44903571	        -11.41625987	         -3.14179978	         -0.46339726	          1.48292481	          0.89419780	         -0.00478574	         44.84861968	          4.35813237	         -3.89402125	        -70.94489248	         13.33961161	          0.99605730	          1.94177390	          6.40667931	          1.22064836	          6.39842067	        -37.79626561	          7.20626566	          3.87749350	         49.57069554	         -0.97274886	          3.73204200	         -3.09381069	         -9.97997804	         -8.21924056	          1.07784440	         76.99954875	         16.23960729	          0.33210671	          7.68302081	          0.00051111	
          0.45471970	        -11.44059096	         -3.28925831	         -0.45474561	          1.50205295	          0.89568015	         -0.00455189	         45.80644709	          4.58226031	         -3.80344347	        -69.51573798	         12.79768458	          0.59518368	          1.79735476	          5.08108896	          0.78149170	          6.19665774	        -37.19184376	          5.71773916	          4.83904985	         49.70639103	         -0.96409611	          4.00872782	         -3.27454818	        -10.32244510	         -8.22762893	          0.88215349	         78.00936083	         16.15228124	          0.32349079	          7.68535864	          0.00989004	
          0.46040370	        -11.46144386	         -3.41529518	         -0.44772071	          1.52122699	          0.89700443	         -0.00430862	         46.69179601	          4.78685388	         -3.67352710	        -67.98075809	         12.16822990	          0.20763528	          1.66223994	          3.83055314	          0.37113500	          6.00097349	        -36.70102233	          4.18759530	          5.81679731	         49.59341473	         -0.95265988	          4.26022219	         -3.44410528	        -10.61284260	         -8.22833180	          0.71827948	         78.85491655	         16.05004728	          0.30819003	          7.76937179	          0.03896557	
          0.46608770	        -11.47888902	         -3.51938951	         -0.44152894	          1.54043997	          0.89816406	         -0.00405608	         47.50088604	          4.97162362	         -3.50620354	        -66.34106478	         11.46523781	         -0.16861206	          1.53598556	          2.65570019	         -0.01029449	          5.81250924	        -36.31662491	          2.60892929	          6.80209945	         49.25311061	         -0.94007350	          4.48513255	         -3.60141832	        -10.85128747	         -8.22192544	          0.58600525	         79.53652349	         15.93902193	          0.28786420	          7.93089678	          0.07545619	
          0.47177169	        -11.49298182	         -3.60171685	         -0.43454242	          1.55968768	          0.89915657	         -0.00379430	         48.22352917	          5.13710242	         -3.30355150	        -64.58753112	         10.69827630	         -0.53454275	          1.42013086	          1.55933769	         -0.36324026	          5.63345731	        -36.03579876	          0.97484087	          7.78731960	         48.69931834	         -0.92739320	          4.68243241	         -3.74522587	        -11.03866336	         -8.20868333	          0.48448441	         80.05362275	         15.82412630	          0.26398782	          8.16407196	          0.11058154	
          0.47745569	        -11.50378021	         -3.66205633	         -0.42346029	          1.57896383	          0.89998080	         -0.00352107	         48.84690692	          5.28328672	         -3.06783746	        -62.71133497	          9.87597805	         -0.89079376	          1.31398694	          0.54948056	         -0.68884824	          5.46738912	        -35.86475637	         -0.71722379	          8.77377684	         47.93359499	         -0.91570815	          4.84946283	         -3.87436859	        -11.17651549	         -8.18771620	          0.41178974	         80.40539024	         15.71076591	          0.23743644	          8.46300736	          0.13711390	
          0.48313968	        -11.51110859	         -3.70083315	         -0.40475373	          1.59826328	          0.90063388	         -0.00323411	         49.35926076	          5.41220278	         -2.79853526	        -60.71699724	          9.01142143	         -1.23739348	          1.21738642	         -0.36174939	         -0.98877458	          5.31890342	        -35.81791209	         -2.47036086	          9.76342695	         46.95282351	         -0.90570137	          4.98437778	         -3.98747102	        -11.26700820	         -8.15808047	          0.36549089	         80.59191985	         15.60356868	          0.20902021	          8.82137226	          0.15014331	
